<?xml version="1.0" encoding="UTF-8"?>
<!DOCTYPE svg PUBLIC "-//W3C//DTD SVG 1.1//EN" "http://www.w3.org/Graphics/SVG/1.1/DTD/svg11.dtd">
<svg xmlns="http://www.w3.org/2000/svg" version="1.1" width="1280px" height="720px" style="shape-rendering:geometricPrecision; text-rendering:geometricPrecision; image-rendering:optimizeQuality; fill-rule:evenodd; clip-rule:evenodd" xmlns:xlink="http://www.w3.org/1999/xlink">
<g><path style="opacity:1" fill="#fede24" d="M -0.5,-0.5 C 426.167,-0.5 852.833,-0.5 1279.5,-0.5C 1279.5,239.5 1279.5,479.5 1279.5,719.5C 852.833,719.5 426.167,719.5 -0.5,719.5C -0.5,479.5 -0.5,239.5 -0.5,-0.5 Z"/></g>
<g><path style="opacity:1" fill="#060504" d="M 678.5,55.5 C 712.474,52.2276 736.64,65.8943 751,96.5C 760.654,132.569 749.154,159.402 716.5,177C 704.528,181.496 692.195,183.163 679.5,182C 671.291,190.041 663.291,198.208 655.5,206.5C 708.239,213.595 745.572,241.262 767.5,289.5C 806.131,293.275 844.797,296.608 883.5,299.5C 880.921,338.531 877.921,377.531 874.5,416.5C 836.159,413.393 797.826,410.559 759.5,408C 754.667,414.833 749.833,421.667 745,428.5C 732.632,441.2 720.632,454.2 709,467.5C 704.313,473.375 700.813,479.875 698.5,487C 698.802,492.433 700.635,497.267 704,501.5C 713.683,508.851 722.35,517.185 730,526.5C 738.854,544.021 740.854,562.354 736,581.5C 727.865,602.635 712.698,615.468 690.5,620C 680.5,620.667 670.5,620.667 660.5,620C 625.791,617.458 591.124,614.458 556.5,611C 531.243,606.41 515.743,591.577 510,566.5C 504.98,540.557 512.48,519.057 532.5,502C 541.098,497.119 549.265,491.619 557,485.5C 559.079,482.267 560.579,478.767 561.5,475C 559.592,466.68 556.425,458.846 552,451.5C 542.916,436.996 533.582,422.663 524,408.5C 519.973,401.779 516.473,394.779 513.5,387.5C 511.922,386.702 510.256,386.202 508.5,386C 471.833,383.1 435.166,380.266 398.5,377.5C 401.886,338.535 404.886,299.535 407.5,260.5C 441.472,263.553 475.472,266.387 509.5,269C 514.533,269.829 519.533,269.662 524.5,268.5C 538.058,251.108 553.725,235.941 571.5,223C 592.955,200.714 614.789,178.547 637,156.5C 637.667,155.5 637.667,154.5 637,153.5C 620.659,124.597 623.493,97.7632 645.5,73C 655.146,64.5115 666.146,58.6782 678.5,55.5 Z"/></g>
<g><path style="opacity:1" fill="#fbfbfb" d="M 684.5,68.5 C 706.588,67.2922 723.421,75.9589 735,94.5C 745.884,118.029 742.051,138.862 723.5,157C 708.921,168.028 692.588,171.694 674.5,168C 661.986,180.347 649.652,192.847 637.5,205.5C 626.387,206.225 615.387,207.392 604.5,209C 621.58,190.921 638.914,173.255 656.5,156C 640.029,138.685 636.196,118.852 645,96.5C 653.959,81.0146 667.125,71.6813 684.5,68.5 Z"/></g>
<g><path style="opacity:1" fill="#070706" d="M 660.5,89.5 C 681.455,91.6629 702.455,93.3295 723.5,94.5C 723.002,99.1522 722.669,103.819 722.5,108.5C 701.834,106.833 681.168,105.167 660.5,103.5C 660.5,98.8333 660.5,94.1667 660.5,89.5 Z"/></g>
<g><path style="opacity:1" fill="#080807" d="M 659.5,109.5 C 680.136,111.52 700.803,113.187 721.5,114.5C 721.563,119.203 721.229,123.87 720.5,128.5C 699.836,126.833 679.17,125.167 658.5,123.5C 658.54,118.807 658.873,114.141 659.5,109.5 Z"/></g>
<g><path style="opacity:1" fill="#060605" d="M 657.5,129.5 C 678.492,131.232 699.492,132.899 720.5,134.5C 720.167,139.167 719.833,143.833 719.5,148.5C 698.88,146.393 678.213,144.726 657.5,143.5C 657.5,138.833 657.5,134.167 657.5,129.5 Z"/></g>
<g><path style="opacity:1" fill="#fdfdfd" d="M 629.5,219.5 C 690.033,217.323 732.533,243.657 757,298.5C 765.44,321.379 766.773,344.712 761,368.5C 758.735,378.698 755.068,388.364 750,397.5C 745,404.833 740,412.167 735,419.5C 720.928,433.568 707.595,448.235 695,463.5C 679.602,486.511 683.436,505.678 706.5,521C 724.114,535.847 729.614,554.347 723,576.5C 716.902,593.815 704.735,603.982 686.5,607C 641.015,605.321 595.682,601.654 550.5,596C 534.646,589.465 525.48,577.632 523,560.5C 519.943,541.334 525.776,525.501 540.5,513C 549.886,507.612 558.719,501.446 567,494.5C 574.865,484.489 576.532,473.489 572,461.5C 569,455.5 566,449.5 563,443.5C 552.333,426.833 541.667,410.167 531,393.5C 519.583,371.849 515.583,348.849 519,324.5C 520.966,302.58 528.966,283.247 543,266.5C 556.089,252.065 570.922,239.898 587.5,230C 601.004,223.957 615.004,220.457 629.5,219.5 Z"/></g>
<g><path style="opacity:1" fill="#090909" d="M 601.5,252.5 C 608.131,253.331 614.798,253.664 621.5,253.5C 620.778,264.496 620.111,275.496 619.5,286.5C 612.833,286.167 606.167,285.833 599.5,285.5C 599.876,274.477 600.543,263.477 601.5,252.5 Z"/></g>
<g><path style="opacity:1" fill="#070706" d="M 676.5,259.5 C 683.186,259.527 689.852,259.861 696.5,260.5C 695.171,271.117 694.504,281.784 694.5,292.5C 687.833,292.167 681.167,291.833 674.5,291.5C 674.355,280.773 675.022,270.107 676.5,259.5 Z"/></g>
<g><path style="opacity:1" fill="#fdfdfd" d="M 416.5,270.5 C 448.468,273.276 480.468,275.609 512.5,277.5C 510.457,310.519 508.124,343.519 505.5,376.5C 473.515,373.946 441.515,371.612 409.5,369.5C 409.881,360.502 410.214,351.502 410.5,342.5C 426.83,343.56 443.164,344.56 459.5,345.5C 460.092,330.801 461.092,316.135 462.5,301.5C 446.843,300.078 431.177,298.745 415.5,297.5C 415.448,288.482 415.782,279.482 416.5,270.5 Z"/></g>
<g><path style="opacity:1" fill="#fdfdfd" d="M 776.5,300.5 C 808.803,303.255 841.137,305.588 873.5,307.5C 873.296,316.538 872.629,325.538 871.5,334.5C 855.467,334.03 839.467,333.03 823.5,331.5C 822.293,346.485 821.293,361.485 820.5,376.5C 836.158,377.624 851.824,378.624 867.5,379.5C 867.564,388.439 866.897,397.273 865.5,406C 833.522,403.861 801.522,401.694 769.5,399.5C 771.524,366.48 773.857,333.48 776.5,300.5 Z"/></g>
<g><path style="opacity:1" fill="#080807" d="M 576.5,316.5 C 589.504,317.302 593.671,323.635 589,335.5C 584.405,339.681 579.239,340.514 573.5,338C 568.847,334.212 567.347,329.378 569,323.5C 570.742,320.254 573.242,317.921 576.5,316.5 Z"/></g>
<g><path style="opacity:1" fill="#0b0b0b" d="M 607.5,319.5 C 617.933,318.6 623.1,323.266 623,333.5C 618.955,341.848 612.788,344.014 604.5,340C 597.216,331.873 598.216,325.04 607.5,319.5 Z"/></g>
<g><path style="opacity:1" fill="#050505" d="M 638.5,322.5 C 651.206,321.695 656.04,327.362 653,339.5C 649.212,344.153 644.378,345.653 638.5,344C 632.092,340.677 629.925,335.511 632,328.5C 633.494,325.686 635.66,323.686 638.5,322.5 Z"/></g>
<g><path style="opacity:1" fill="#090908" d="M 671.5,324.5 C 683.01,324.827 687.51,330.493 685,341.5C 676.404,350.25 669.071,349.25 663,338.5C 662.504,331.827 665.338,327.16 671.5,324.5 Z"/></g>
<g><path style="opacity:1" fill="#080807" d="M 702.5,326.5 C 712.685,327.176 717.185,332.509 716,342.5C 711.902,349.505 706.069,351.338 698.5,348C 692.71,342.553 692.043,336.553 696.5,330C 698.432,328.541 700.432,327.375 702.5,326.5 Z"/></g>
<g><path style="opacity:1" fill="#050504" d="M 588.5,345.5 C 599.875,344.377 605.042,349.377 604,360.5C 600.677,366.908 595.511,369.075 588.5,367C 582.397,363.96 580.231,359.126 582,352.5C 583.694,349.642 585.861,347.309 588.5,345.5 Z"/></g>
<g><path style="opacity:1" fill="#0a0a0a" d="M 620.5,347.5 C 627.623,346.479 632.79,349.146 636,355.5C 636.547,365.62 631.714,370.453 621.5,370C 613.933,366.705 611.433,361.205 614,353.5C 615.494,350.686 617.66,348.686 620.5,347.5 Z"/></g>
<g><path style="opacity:1" fill="#050504" d="M 651.5,350.5 C 663.341,349.506 668.507,354.839 667,366.5C 663.178,372.041 658.011,373.874 651.5,372C 645.397,368.96 643.231,364.126 645,357.5C 646.694,354.642 648.861,352.309 651.5,350.5 Z"/></g>
<g><path style="opacity:1" fill="#090908" d="M 683.5,352.5 C 696.416,352.552 700.916,358.552 697,370.5C 688.292,378.025 681.292,376.692 676,366.5C 675.291,360.058 677.791,355.392 683.5,352.5 Z"/></g>
<g><path style="opacity:1" fill="#070706" d="M 601.5,372.5 C 613.895,370.394 619.395,375.394 618,387.5C 614.96,393.603 610.126,395.769 603.5,394C 596.642,391.451 594.142,386.617 596,379.5C 597.371,376.734 599.204,374.401 601.5,372.5 Z"/></g>
<g><path style="opacity:1" fill="#080807" d="M 634.5,374.5 C 645.97,374.791 650.47,380.458 648,391.5C 641.549,398.87 634.882,399.204 628,392.5C 623.653,384.188 625.819,378.188 634.5,374.5 Z"/></g>
<g><path style="opacity:1" fill="#040403" d="M 663.5,377.5 C 675.326,375.833 680.826,380.833 680,392.5C 674.485,400.608 667.818,401.608 660,395.5C 655.933,388.461 657.1,382.461 663.5,377.5 Z"/></g>
<g><path style="opacity:1" fill="#080808" d="M 615.5,399.5 C 625.029,397.915 630.696,401.748 632.5,411C 630.425,419.377 625.092,422.711 616.5,421C 610.223,418.193 607.723,413.36 609,406.5C 610.694,403.642 612.861,401.309 615.5,399.5 Z"/></g>
<g><path style="opacity:1" fill="#060606" d="M 646.5,401.5 C 657.826,400.327 662.992,405.327 662,416.5C 658.441,423.188 652.941,425.355 645.5,423C 639.954,419.268 638.121,414.101 640,407.5C 642.063,405.266 644.229,403.266 646.5,401.5 Z"/></g>
<g><path style="opacity:1" fill="#060606" d="M 629.5,425.5 C 643.026,424.913 647.526,430.913 643,443.5C 634.002,450.086 627.002,448.419 622,438.5C 621.767,432.571 624.267,428.238 629.5,425.5 Z"/></g>
<g><path style="opacity:1" fill="#040303" d="M 618.5,486.5 C 655.337,486.503 673.503,504.836 673,541.5C 665.179,572.507 645.346,585.674 613.5,581C 588.663,571.819 577.163,553.986 579,527.5C 583.909,505.76 597.076,492.093 618.5,486.5 Z"/></g>
<g><path style="opacity:1" fill="#fbfbfb" d="M 619.5,515.5 C 620.586,515.62 621.253,516.287 621.5,517.5C 620.497,529.557 619.164,541.557 617.5,553.5C 610.125,546.491 602.791,539.491 595.5,532.5C 603.518,526.808 611.518,521.142 619.5,515.5 Z"/></g>
<g><path style="opacity:1" fill="#f8f8f8" d="M 632.5,515.5 C 641.236,521.896 649.236,529.229 656.5,537.5C 648.377,543.401 640.044,549.068 631.5,554.5C 631.167,552 630.833,549.5 630.5,547C 631.416,536.512 632.082,526.012 632.5,515.5 Z"/></g>
</svg>
